<svg width="26" height="26" viewBox="0 0 26 26" fill="none" xmlns="http://www.w3.org/2000/svg">
<path fill-rule="evenodd" clip-rule="evenodd" d="M13 24.375C16.0168 24.375 18.9101 23.1766 21.0433 21.0433C23.1766 18.9101 24.375 16.0168 24.375 13C24.375 9.98316 23.1766 7.08989 21.0433 4.95666C18.9101 2.82344 16.0168 1.625 13 1.625C9.98316 1.625 7.08989 2.82344 4.95666 4.95666C2.82343 7.08989 1.625 9.98316 1.625 13C1.625 16.0168 2.82343 18.9101 4.95666 21.0433C7.08989 23.1766 9.98316 24.375 13 24.375ZM13 1.3391e-06C16.4478 1.18839e-06 19.7544 1.36964 22.1924 3.80761C24.6304 6.24559 26 9.55219 26 13C26 16.4478 24.6304 19.7544 22.1924 22.1924C19.7544 24.6304 16.4478 26 13 26C9.55219 26 6.24559 24.6304 3.80761 22.1924C1.36964 19.7544 -4.17539e-07 16.4478 -5.68248e-07 13C-7.18957e-07 9.55219 1.36964 6.24559 3.80761 3.80761C6.24558 1.36964 9.55218 1.48981e-06 13 1.3391e-06ZM7.3125 12.1875C7.09701 12.1875 6.89035 12.2731 6.73798 12.4255C6.5856 12.5778 6.5 12.7845 6.5 13C6.5 13.2155 6.5856 13.4222 6.73798 13.5745C6.89035 13.7269 7.09701 13.8125 7.3125 13.8125L16.7261 13.8125L13.2373 17.2997C13.0847 17.4523 12.999 17.6592 12.999 17.875C12.999 18.0908 13.0847 18.2977 13.2373 18.4503C13.3898 18.6028 13.5967 18.6885 13.8125 18.6885C14.0283 18.6885 14.2352 18.6028 14.3878 18.4502L19.2628 13.5752C19.3384 13.4998 19.3984 13.4101 19.4394 13.3114C19.4804 13.2127 19.5015 13.1069 19.5015 13C19.5015 12.8931 19.4804 12.7873 19.4394 12.6886C19.3984 12.5899 19.3384 12.5002 19.2628 12.4248L14.3878 7.54975C14.2352 7.39719 14.0283 7.31148 13.8125 7.31148C13.5967 7.31148 13.3898 7.39719 13.2373 7.54975C13.0847 7.70232 12.999 7.90924 12.999 8.125C12.999 8.34076 13.0847 8.54769 13.2373 8.70025L16.7261 12.1875L7.3125 12.1875Z" fill="currentColor"/>
</svg>
