<svg width="25" height="21" viewBox="0 0 25 21" fill="none" xmlns="http://www.w3.org/2000/svg">
<path d="M24.6607 17.3353L22.6968 14.6973V3.62087C22.6968 2.14126 21.493 0.9375 20.0134 0.9375H4.98658C3.50698 0.9375 2.30322 2.14126 2.30322 3.62087V14.6973L0.339335 17.3353C-0.0485818 17.8565 -0.108445 18.5408 0.183164 19.1214C0.474723 19.7019 1.05945 20.0626 1.70907 20.0626H23.2909C23.9405 20.0626 24.5253 19.7019 24.8168 19.1214C25.1085 18.5408 25.0486 17.8565 24.6607 17.3353ZM3.76687 3.62087C3.76687 2.94832 4.31404 2.40115 4.98658 2.40115H20.0134C20.686 2.40115 21.2331 2.94832 21.2331 3.62087V14.208H17.6095L16.9108 11.3965C16.6372 10.299 15.8579 9.43821 14.858 9.0358C15.1988 8.56041 15.4002 7.9787 15.4002 7.35045C15.4002 5.75126 14.0992 4.45027 12.5 4.45027C10.9009 4.45027 9.59983 5.75131 9.59983 7.35045C9.59983 7.97865 9.80128 8.56041 10.142 9.0358C9.14205 9.43821 8.36285 10.299 8.08919 11.3965L7.38825 14.208H3.76687V3.62087ZM12.5 8.78703C11.7079 8.78703 11.0635 8.14263 11.0635 7.3505C11.0635 6.55837 11.7079 5.91397 12.5 5.91397C13.2921 5.91397 13.9365 6.55837 13.9365 7.3505C13.9365 8.14263 13.2921 8.78703 12.5 8.78703ZM11.4292 10.2507H13.5708C14.481 10.2507 15.2705 10.8675 15.4907 11.7506L16.1034 14.208H8.89669L9.50942 11.7506C9.72961 10.8675 10.5191 10.2507 11.4292 10.2507ZM23.5089 18.4645C23.4837 18.5147 23.4219 18.5989 23.2909 18.5989H1.70907C1.57812 18.5989 1.51631 18.5147 1.49109 18.4645C1.46581 18.4143 1.43517 18.3143 1.51338 18.2093L3.40257 15.6716H21.5975L23.4866 18.2093C23.5648 18.3143 23.5342 18.4143 23.5089 18.4645Z" fill="currentColor"/>
</svg>
