<svg width="23" height="23" viewBox="0 0 23 23" fill="none" xmlns="http://www.w3.org/2000/svg">
<path d="M20.5357 2.46428H18.0714V0.821444C18.0714 0.367765 17.7037 0 17.25 0C16.7963 0 16.4285 0.367765 16.4285 0.821444V2.46428H6.57141V0.821444C6.57141 0.367765 6.20364 0 5.75001 0C5.29638 0 4.92857 0.367765 4.92857 0.821444V2.46428H2.46428C1.1033 2.46428 0 3.56758 0 4.92857V20.5357C0 21.8967 1.1033 23 2.46428 23H20.5357C21.8967 23 23 21.8967 23 20.5357V4.92857C23 3.56758 21.8967 2.46428 20.5357 2.46428ZM21.3571 20.5357C21.3571 20.9894 20.9893 21.3572 20.5357 21.3572H2.46428C2.01061 21.3572 1.64284 20.9894 1.64284 20.5357V9.85714H21.3571V20.5357ZM21.3571 8.2143H1.64284V4.92857C1.64284 4.47489 2.01061 4.10712 2.46428 4.10712H4.92857V5.74996C4.92857 6.20364 5.29633 6.57141 5.75001 6.57141C6.20369 6.57141 6.57146 6.20364 6.57146 5.74996V4.10712H16.4286V5.74996C16.4286 6.20364 16.7964 6.57141 17.25 6.57141C17.7037 6.57141 18.0715 6.20364 18.0715 5.74996V4.10712H20.5358C20.9894 4.10712 21.3572 4.47489 21.3572 4.92857V8.2143H21.3571Z" fill="currentColor"/>
<path d="M6.57171 11.5H4.92887C4.47519 11.5 4.10742 11.8678 4.10742 12.3214C4.10742 12.7751 4.47519 13.1429 4.92887 13.1429H6.57171C7.02539 13.1429 7.39316 12.7751 7.39316 12.3214C7.39316 11.8678 7.02539 11.5 6.57171 11.5Z" fill="currentColor"/>
<path d="M12.3217 11.5H10.6789C10.2252 11.5 9.85742 11.8678 9.85742 12.3214C9.85742 12.7751 10.2252 13.1429 10.6789 13.1429H12.3217C12.7754 13.1429 13.1432 12.7751 13.1432 12.3214C13.1432 11.8678 12.7754 11.5 12.3217 11.5Z" fill="currentColor"/>
<path d="M18.0717 11.5H16.4289C15.9752 11.5 15.6074 11.8678 15.6074 12.3214C15.6074 12.7751 15.9752 13.1429 16.4289 13.1429H18.0717C18.5254 13.1429 18.8932 12.7751 18.8932 12.3214C18.8931 11.8678 18.5253 11.5 18.0717 11.5Z" fill="currentColor"/>
<path d="M6.57171 14.7856H4.92887C4.47519 14.7856 4.10742 15.1534 4.10742 15.6071C4.10742 16.0608 4.47519 16.4285 4.92887 16.4285H6.57171C7.02539 16.4285 7.39316 16.0608 7.39316 15.6071C7.39316 15.1534 7.02539 14.7856 6.57171 14.7856Z" fill="currentColor"/>
<path d="M12.3217 14.7856H10.6789C10.2252 14.7856 9.85742 15.1534 9.85742 15.6071C9.85742 16.0608 10.2252 16.4285 10.6789 16.4285H12.3217C12.7754 16.4285 13.1432 16.0608 13.1432 15.6071C13.1432 15.1534 12.7754 14.7856 12.3217 14.7856Z" fill="currentColor"/>
<path d="M18.0717 14.7856H16.4289C15.9752 14.7856 15.6074 15.1534 15.6074 15.6071C15.6074 16.0608 15.9752 16.4285 16.4289 16.4285H18.0717C18.5254 16.4285 18.8932 16.0608 18.8932 15.6071C18.8931 15.1534 18.5253 14.7856 18.0717 14.7856Z" fill="currentColor"/>
<path d="M6.57171 18.0713H4.92887C4.47519 18.0713 4.10742 18.4391 4.10742 18.8927C4.10742 19.3464 4.47519 19.7141 4.92887 19.7141H6.57171C7.02539 19.7141 7.39316 19.3464 7.39316 18.8927C7.39316 18.439 7.02539 18.0713 6.57171 18.0713Z" fill="currentColor"/>
<path d="M12.3217 18.0713H10.6789C10.2252 18.0713 9.85742 18.4391 9.85742 18.8927C9.85742 19.3464 10.2252 19.7142 10.6789 19.7142H12.3217C12.7754 19.7142 13.1432 19.3464 13.1432 18.8927C13.1432 18.4391 12.7754 18.0713 12.3217 18.0713Z" fill="currentColor"/>
<path d="M18.0717 18.0713H16.4289C15.9752 18.0713 15.6074 18.4391 15.6074 18.8927C15.6074 19.3464 15.9752 19.7142 16.4289 19.7142H18.0717C18.5254 19.7142 18.8932 19.3464 18.8932 18.8927C18.8932 18.4391 18.5253 18.0713 18.0717 18.0713Z" fill="currentColor"/>
</svg>
