<svg width="25" height="25" viewBox="0 0 25 25" fill="none" xmlns="http://www.w3.org/2000/svg">
<g clip-path="url(#clip0)">
<path d="M24.9707 1.86655C24.9166 0.87348 24.1268 0.0837831 23.1337 0.0295838C21.1299 -0.0798888 17.2088 0.0266054 13.4594 1.96591C11.548 2.95458 9.52653 4.63081 7.91329 6.56479C7.89342 6.58862 7.87408 6.61259 7.85436 6.63647L4.19322 6.91928C3.59059 6.96586 3.05382 7.28173 2.72052 7.78583L0.222766 11.5638C-0.0300171 11.9461 -0.0702027 12.4246 0.115198 12.8436C0.300647 13.2628 0.681702 13.5549 1.13458 13.625L4.2191 14.1028C4.20822 14.1627 4.19728 14.2227 4.18727 14.2826C4.08458 14.8969 4.2881 15.5284 4.73175 15.972L9.02823 20.2686C9.39606 20.6364 9.89308 20.8392 10.4024 20.8392C10.5072 20.8392 10.6127 20.8305 10.7177 20.813C10.7776 20.803 10.8376 20.792 10.8975 20.7811L11.3753 23.8657C11.4454 24.3186 11.7375 24.6997 12.1566 24.8851C12.3309 24.9623 12.5154 25.0003 12.6991 25.0003C12.9571 25.0003 13.2132 24.9252 13.4365 24.7776L17.2144 22.2798C17.7186 21.9464 18.0344 21.4097 18.0809 20.8071L18.3637 17.146C18.3876 17.1263 18.4116 17.1069 18.4354 17.0871C20.3694 15.4738 22.0457 13.4523 23.0343 11.5409C24.9737 7.79135 25.08 3.87021 24.9707 1.86655ZM16.4066 21.0578L12.7927 23.4471L12.3271 20.441C13.8545 19.9919 15.3653 19.2727 16.8047 18.3092L16.6205 20.6942C16.609 20.843 16.531 20.9755 16.4066 21.0578ZM10.064 19.2328L5.76749 14.9362C5.65787 14.8266 5.60719 14.6725 5.63204 14.5241C5.75978 13.7603 5.95826 13.0332 6.20397 12.3482L12.6506 18.7949C11.828 19.0896 11.0911 19.2654 10.4761 19.3682C10.3275 19.3929 10.1736 19.3424 10.064 19.2328ZM4.30607 8.37978L6.69103 8.19555C5.72745 9.63496 5.00822 11.1458 4.55914 12.6732L1.55309 12.2076L3.94244 8.59374C4.02477 8.46923 4.15734 8.39125 4.30607 8.37978ZM17.4972 15.9621C16.314 16.9491 15.1654 17.6629 14.1067 18.1795L6.82052 10.8933C7.49718 9.51127 8.32301 8.36044 9.03815 7.50312C10.5311 5.71332 12.3879 4.16933 14.1324 3.26699C17.5735 1.48705 21.1991 1.3912 23.054 1.49218C23.2995 1.50556 23.4947 1.70082 23.5081 1.94638C23.6092 3.80126 23.5132 7.42675 21.7333 10.8679C20.831 12.6124 19.287 14.4692 17.4972 15.9621Z" fill="currentColor"/>
<path d="M17.1249 11.5351C18.0625 11.535 19.0005 11.1781 19.7143 10.4643C20.406 9.77263 20.7869 8.853 20.7869 7.87488C20.7869 6.89675 20.406 5.97712 19.7143 5.28547C18.2865 3.85759 15.9632 3.85769 14.5355 5.28547C13.8438 5.97712 13.4629 6.89675 13.4629 7.87488C13.4629 8.853 13.8438 9.77263 14.5355 10.4643C15.2495 11.1782 16.187 11.5352 17.1249 11.5351ZM15.5712 6.32122C15.9995 5.89285 16.5622 5.67869 17.1248 5.67869C17.6875 5.67869 18.2501 5.89285 18.6785 6.32122C19.0935 6.73621 19.322 7.28796 19.322 7.87483C19.322 8.46169 19.0935 9.0135 18.6785 9.42849C17.8218 10.2852 16.4278 10.2851 15.5711 9.42849C15.1562 9.0135 14.9276 8.46174 14.9276 7.87488C14.9276 7.28801 15.1562 6.73621 15.5712 6.32122Z" fill="currentColor"/>
<path d="M0.747046 20.6025C0.934497 20.6025 1.12195 20.531 1.26492 20.3879L3.65618 17.9967C3.94221 17.7106 3.94221 17.2469 3.65618 16.9609C3.37019 16.6748 2.90642 16.6748 2.62039 16.9609L0.229175 19.3521C-0.0568603 19.6382 -0.0568603 20.1019 0.229175 20.3879C0.372144 20.5309 0.559595 20.6025 0.747046 20.6025Z" fill="currentColor"/>
<path d="M5.84768 19.1523C5.56169 18.8662 5.09792 18.8662 4.81189 19.1523L0.214526 23.7497C-0.0715088 24.0357 -0.0715088 24.4994 0.214526 24.7855C0.357544 24.9285 0.544946 25 0.732397 25C0.919849 25 1.1073 24.9285 1.25027 24.7854L5.84763 20.1881C6.13372 19.902 6.13372 19.4383 5.84768 19.1523Z" fill="currentColor"/>
<path d="M7.00324 21.3437L4.61199 23.7349C4.32595 24.021 4.32595 24.4847 4.61199 24.7707C4.755 24.9137 4.94246 24.9853 5.12986 24.9853C5.31726 24.9853 5.50476 24.9138 5.64773 24.7707L8.03899 22.3795C8.32502 22.0934 8.32502 21.6297 8.03899 21.3437C7.753 21.0576 7.28923 21.0576 7.00324 21.3437Z" fill="currentColor"/>
</g>
<defs>
<clipPath id="clip0">
<rect width="25" height="25" fill="white"/>
</clipPath>
</defs>
</svg>
