<svg width="40" height="40" viewBox="0 0 40 40" fill="none" xmlns="http://www.w3.org/2000/svg">
<path fill-rule="evenodd" clip-rule="evenodd" d="M7.62563 32.3744C10.9075 35.6563 15.3587 37.5 20 37.5C24.6413 37.5 29.0925 35.6563 32.3744 32.3744C35.6563 29.0925 37.5 24.6413 37.5 20C37.5 15.3587 35.6563 10.9075 32.3744 7.62563C29.0925 4.34374 24.6413 2.5 20 2.5C15.3587 2.5 10.9075 4.34374 7.62563 7.62563C4.34374 10.9075 2.5 15.3587 2.5 20C2.5 24.6413 4.34374 29.0925 7.62563 32.3744ZM34.1421 34.1421C30.3914 37.8929 25.3043 40 20 40C14.6957 40 9.60859 37.8929 5.85786 34.1421C2.10714 30.3914 0 25.3043 0 20C0 14.6957 2.10714 9.60859 5.85786 5.85786C9.60859 2.10714 14.6957 0 20 0C25.3043 0 30.3914 2.10714 34.1421 5.85786C37.8929 9.60859 40 14.6957 40 20C40 25.3043 37.8929 30.3914 34.1421 34.1421ZM16.5999 17.1875L22.3249 16.47L19.8224 28.2325C19.6449 29.0825 19.8949 29.565 20.5824 29.565C21.0674 29.565 21.7974 29.39 22.2974 28.95L22.0774 29.99C21.3599 30.855 19.7774 31.485 18.4149 31.485C16.6574 31.485 15.9099 30.43 16.3949 28.1875L18.2399 19.5175C18.3999 18.785 18.2549 18.52 17.5199 18.345L16.3949 18.1375L16.5999 17.1875ZM21.7676 13.0178C22.2365 12.5489 22.4999 11.913 22.4999 11.25C22.4999 10.587 22.2365 9.95107 21.7676 9.48223C21.2988 9.01339 20.6629 8.75 19.9999 8.75C19.3368 8.75 18.701 9.01339 18.2321 9.48223C17.7633 9.95107 17.4999 10.587 17.4999 11.25C17.4999 11.913 17.7633 12.5489 18.2321 13.0178C18.701 13.4866 19.3368 13.75 19.9999 13.75C20.6629 13.75 21.2988 13.4866 21.7676 13.0178Z" fill="url(#paint0_linear)"/>
<defs>
<linearGradient id="paint0_linear" x1="2.05935e-08" y1="1.86006e-08" x2="44.855" y2="7.6456" gradientUnits="userSpaceOnUse">
<stop stop-color="#D41515"/>
<stop offset="1" stop-color="#FF5A5A"/>
</linearGradient>
</defs>
</svg>
