<svg width="45" height="31" viewBox="0 0 45 31" fill="none" xmlns="http://www.w3.org/2000/svg">
<path d="M7.59185 9.55396H5.42578C4.94045 9.55396 4.54688 9.94744 4.54688 10.4329C4.54688 10.9183 4.94045 11.3118 5.42578 11.3118H6.71294L6.71303 20.5669C6.71303 21.0523 7.1066 21.4458 7.59193 21.4458C8.07735 21.4458 8.47084 21.0523 8.47084 20.5669L8.47075 10.4329C8.47075 9.94744 8.07718 9.55396 7.59185 9.55396Z" fill="#AFA9B9"/>
<path d="M13.9241 9.55396C11.8868 9.55396 10.2295 11.2113 10.2295 13.2484L10.2296 17.7513C10.2296 19.7884 11.8868 21.4457 13.9241 21.4457C15.9613 21.4457 17.6186 19.7884 17.6186 17.7513V13.2484C17.6186 11.2113 15.9613 9.55396 13.9241 9.55396ZM15.8607 17.7513C15.8607 18.8191 14.9919 19.6879 13.9241 19.6879C12.8562 19.6879 11.9874 18.8191 11.9874 17.7513L11.9873 13.2484C11.9873 12.1806 12.8562 11.3118 13.9241 11.3118C14.9919 11.3118 15.8607 12.1806 15.8607 13.2484V17.7513Z" fill="#AFA9B9"/>
<path d="M23.0705 9.55396C21.0332 9.55396 19.376 11.2113 19.376 13.2484V17.7513C19.376 19.7884 21.0332 21.4457 23.0705 21.4457C25.1077 21.4457 26.7649 19.7884 26.7649 17.7513V13.2484C26.7649 11.2113 25.1077 9.55396 23.0705 9.55396ZM25.0071 17.7513C25.0071 18.8191 24.1383 19.6879 23.0705 19.6879C22.0026 19.6879 21.1338 18.8191 21.1338 17.7513V13.2484C21.1338 12.1806 22.0026 11.3118 23.0705 11.3118C24.1383 11.3118 25.0071 12.1806 25.0071 13.2484V17.7513Z" fill="#AFA9B9"/>
<path d="M36.7474 10.0584C36.2997 9.87063 35.7846 10.0811 35.5968 10.5288L31.7914 19.5963C31.3817 20.684 32.9166 21.3362 33.4122 20.2764L37.2176 11.2089C37.4056 10.7614 37.1949 10.2464 36.7474 10.0584Z" fill="#AFA9B9"/>
<path d="M33.5553 12.4002C33.5553 10.8382 32.4067 9.56738 30.9949 9.56738C29.5831 9.56738 28.4346 10.8382 28.4346 12.4002C28.4346 13.9622 29.5831 15.233 30.9949 15.233C32.4067 15.233 33.5553 13.9622 33.5553 12.4002ZM30.9949 13.4752C30.5599 13.4752 30.1924 12.9829 30.1924 12.4002C30.1924 11.8175 30.5599 11.3252 30.9949 11.3252C31.4299 11.3252 31.7974 11.8175 31.7974 12.4002C31.7974 12.9829 31.4299 13.4752 30.9949 13.4752Z" fill="#AFA9B9"/>
<path d="M37.8924 15.7668C36.4806 15.7668 35.332 17.0377 35.332 18.5996C35.332 20.1616 36.4806 21.4325 37.8924 21.4325C39.3042 21.4325 40.4527 20.1616 40.4527 18.5996C40.4527 17.0377 39.3041 15.7668 37.8924 15.7668ZM37.8924 19.6746C37.4574 19.6746 37.0898 19.1824 37.0898 18.5996C37.0898 18.0169 37.4574 17.5247 37.8924 17.5247C38.3273 17.5247 38.6949 18.0169 38.6949 18.5996C38.6949 19.1824 38.3273 19.6746 37.8924 19.6746Z" fill="#AFA9B9"/>
<path d="M39.6572 0.470703H5.34278C2.39678 0.470703 0 2.86748 0 5.81349V25.1865C0 28.1325 2.39678 30.5293 5.34278 30.5293H39.6572C42.6032 30.5293 45 28.1325 45 25.1865V5.81349C45 2.86748 42.6032 0.470703 39.6572 0.470703ZM42.3633 25.1865C42.3633 26.6786 41.1493 27.8926 39.6572 27.8926H5.34278C3.85066 27.8926 2.63672 26.6786 2.63672 25.1865V5.81349C2.63672 4.32137 3.85066 3.10742 5.34278 3.10742H39.6572C41.1493 3.10742 42.3633 4.32137 42.3633 5.81349V25.1865Z" fill="#AFA9B9"/>
</svg>
