<svg width="30" height="30" viewBox="0 0 30 30" fill="none" xmlns="http://www.w3.org/2000/svg">
<g clip-path="url(#clip0)">
<path d="M25.0786 0.00199202C25.0525 0.000703066 25.026 0 24.9989 0H5.00307C2.24042 0 0.000976562 2.23945 0.000976562 5.00209V28.7477C0.000976562 29.8215 1.26579 30.3955 2.07391 29.6883L11.2501 21.6592L20.4262 29.6882C21.2344 30.3954 22.4991 29.8215 22.4991 28.7476V14.9988H28.7486C29.4389 14.9988 29.9985 14.4392 29.9985 13.7489V4.99957C29.9985 2.26493 27.8031 0.044762 25.0786 0.00199202ZM19.9993 25.9932L12.0731 19.0577C11.6019 18.6453 10.8982 18.6453 10.427 19.0577L2.50073 25.9932V5.00209C2.50073 3.62003 3.62101 2.49981 5.00301 2.49981H20.6681C20.6501 2.53093 20.6329 2.5625 20.6156 2.59403C20.6098 2.60445 20.6038 2.61471 20.5982 2.62519C20.5646 2.6873 20.5325 2.75028 20.5016 2.81391C20.4943 2.82897 20.4872 2.84408 20.48 2.8592C20.453 2.91632 20.4268 2.97392 20.4018 3.03221C20.3977 3.04182 20.3933 3.05125 20.3893 3.06092C20.3616 3.1266 20.3356 3.1931 20.3107 3.26012C20.3047 3.27618 20.299 3.29235 20.2932 3.30846C20.2712 3.36974 20.2501 3.4315 20.2305 3.49383C20.2278 3.50215 20.2249 3.51036 20.2224 3.51868C20.201 3.58752 20.1815 3.65718 20.1631 3.72731C20.1587 3.74436 20.1544 3.76147 20.1501 3.77858C20.1337 3.8442 20.1182 3.91028 20.1044 3.9769C20.103 3.98335 20.1014 3.98967 20.1002 3.99612C20.0855 4.06783 20.0729 4.14031 20.0614 4.21313C20.0586 4.231 20.0559 4.24893 20.0533 4.26686C20.0429 4.3374 20.0336 4.40823 20.0262 4.47965C20.0259 4.48328 20.0253 4.48686 20.0249 4.49049C20.0174 4.56484 20.0121 4.63983 20.0078 4.71512C20.0068 4.73363 20.0059 4.75215 20.005 4.77072C20.0016 4.84665 19.9992 4.92282 19.9992 4.99963V13.7489V25.9932H19.9993ZM27.4987 12.499H22.4991V4.99957C22.4991 3.6188 23.6181 2.49976 24.9989 2.49976C26.3798 2.49976 27.4988 3.61875 27.4988 4.99957V12.499H27.4987Z" fill="#AFA9B9"/>
</g>
<defs>
<clipPath id="clip0">
<rect width="30" height="30" fill="white"/>
</clipPath>
</defs>
</svg>
