<svg width="58" height="37" viewBox="0 0 58 37" fill="none" xmlns="http://www.w3.org/2000/svg">
<path d="M56.1875 31.1875H55.25V4.23438C55.2491 3.42657 54.9278 2.65211 54.3566 2.0809C53.7854 1.5097 53.0109 1.1884 52.2031 1.1875H43.2969C42.4891 1.1884 41.7146 1.5097 41.1434 2.0809C40.5722 2.65211 40.2509 3.42657 40.25 4.23438V31.1875H28.7697L27.4304 26.5H35.3281C36.1359 26.4991 36.9104 26.1778 37.4816 25.6066C38.0528 25.0354 38.3741 24.2609 38.375 23.4531V3.29688C38.3741 2.48907 38.0528 1.71461 37.4816 1.1434C36.9104 0.572198 36.1359 0.2509 35.3281 0.25H5.79688C4.98907 0.2509 4.21461 0.572198 3.6434 1.1434C3.0722 1.71461 2.7509 2.48907 2.75 3.29688V23.4531C2.7509 24.2609 3.0722 25.0354 3.6434 25.6066C4.21461 26.1778 4.98907 26.4991 5.79688 26.5H13.6946L12.3553 31.1875H1.8125C1.56386 31.1875 1.3254 31.2863 1.14959 31.4621C0.973772 31.6379 0.875 31.8764 0.875 32.125V35.875C0.875 36.1236 0.973772 36.3621 1.14959 36.5379C1.3254 36.7137 1.56386 36.8125 1.8125 36.8125H56.1875C56.4361 36.8125 56.6746 36.7137 56.8504 36.5379C57.0262 36.3621 57.125 36.1236 57.125 35.875V32.125C57.125 31.8764 57.0262 31.6379 56.8504 31.4621C56.6746 31.2863 56.4361 31.1875 56.1875 31.1875ZM42.125 4.23438C42.1253 3.92368 42.2489 3.62581 42.4686 3.40611C42.6883 3.18642 42.9862 3.06284 43.2969 3.0625H52.2031C52.5138 3.06284 52.8117 3.18642 53.0314 3.40611C53.2511 3.62581 53.3747 3.92368 53.375 4.23438V14.3125H42.125V4.23438ZM42.125 16.1875H53.375V31.1875H42.125V16.1875ZM4.625 3.29688C4.62534 2.98618 4.74892 2.68831 4.96861 2.46861C5.18831 2.24892 5.48618 2.12534 5.79688 2.125H35.3281C35.6388 2.12534 35.9367 2.24892 36.1564 2.46861C36.3761 2.68831 36.4997 2.98618 36.5 3.29688V20.875H4.625V3.29688ZM4.625 23.4531V22.75H36.5V23.4531C36.4997 23.7638 36.3761 24.0617 36.1564 24.2814C35.9367 24.5011 35.6388 24.6247 35.3281 24.625H5.79688C5.48618 24.6247 5.18831 24.5011 4.96861 24.2814C4.74892 24.0617 4.62534 23.7638 4.625 23.4531ZM21.5 26.5C21.5 26.7486 21.4012 26.9871 21.2254 27.1629C21.0496 27.3387 20.8111 27.4375 20.5625 27.4375C20.3139 27.4375 20.0754 27.3387 19.8996 27.1629C19.7238 26.9871 19.625 26.7486 19.625 26.5H21.5ZM15.6446 26.5H17.75C17.75 27.2459 18.0463 27.9613 18.5738 28.4887C19.1012 29.0162 19.8166 29.3125 20.5625 29.3125C21.3084 29.3125 22.0238 29.0162 22.5512 28.4887C23.0787 27.9613 23.375 27.2459 23.375 26.5H25.4804L26.8203 31.1875H14.3047L15.6446 26.5ZM55.25 34.9375H2.75V33.0625H55.25V34.9375Z" fill="white"/>
<path d="M20.6565 4.00234C20.6243 4.00094 20.5929 4 20.5627 4C20.5325 4 20.5014 4.00094 20.469 4.00234C18.4967 4.027 16.6136 4.82778 15.2276 6.23119C13.8416 7.63459 13.0645 9.52758 13.0645 11.5C13.0645 13.4724 13.8416 15.3654 15.2276 16.7688C16.6136 18.1722 18.4967 18.973 20.469 18.9977C20.5011 18.9991 20.5325 19 20.5627 19C20.5929 19 20.624 18.9991 20.6565 18.9977C22.6287 18.973 24.5118 18.1722 25.8978 16.7688C27.2838 15.3654 28.061 13.4724 28.061 11.5C28.061 9.52758 27.2838 7.63459 25.8978 6.23119C24.5118 4.82778 22.6287 4.027 20.6565 4.00234ZM20.5627 17.125C20.105 17.125 19.3825 16.1005 18.9807 14.3125H22.1447C21.7429 16.1005 21.0204 17.125 20.5627 17.125ZM18.7178 12.4375C18.6983 12.1372 18.6883 11.8247 18.6877 11.5C18.6872 11.1753 18.6972 10.8628 18.7178 10.5625H22.4076C22.4271 10.8628 22.4372 11.1753 22.4377 11.5C22.4383 11.8247 22.4282 12.1372 22.4076 12.4375H18.7178ZM14.9377 11.5C14.938 11.1858 14.9647 10.8722 15.0173 10.5625H16.8404C16.8226 10.8713 16.8127 11.1836 16.8127 11.5C16.8127 11.8164 16.8226 12.1287 16.8404 12.4375H15.0173C14.9647 12.1278 14.938 11.8142 14.9377 11.5ZM20.5627 5.875C21.0204 5.875 21.7429 6.89945 22.1447 8.6875H18.9807C19.3825 6.89945 20.105 5.875 20.5627 5.875ZM24.2851 10.5625H26.1081C26.2142 11.183 26.2142 11.817 26.1081 12.4375H24.2851C24.3029 12.1287 24.3127 11.8164 24.3127 11.5C24.3127 11.1836 24.3029 10.8713 24.2851 10.5625ZM25.4309 8.6875H24.059C23.9361 8.01082 23.7493 7.34731 23.5012 6.70586C24.2983 7.19684 24.9613 7.87768 25.4309 8.6875ZM17.6242 6.70586C17.3761 7.34731 17.1894 8.01082 17.0664 8.6875H15.6945C16.1642 7.87768 16.8272 7.19684 17.6242 6.70586ZM15.6945 14.3125H17.0664C17.1894 14.9892 17.3761 15.6527 17.6242 16.2941C16.8272 15.8032 16.1642 15.1223 15.6945 14.3125ZM23.5012 16.2941C23.7493 15.6527 23.9361 14.9892 24.059 14.3125H25.4309C24.9613 15.1223 24.2983 15.8032 23.5012 16.2941Z" fill="white"/>
<path d="M50.5625 18.0625H44.9375C44.6889 18.0625 44.4504 18.1613 44.2746 18.3371C44.0988 18.5129 44 18.7514 44 19C44 19.2486 44.0988 19.4871 44.2746 19.6629C44.4504 19.8387 44.6889 19.9375 44.9375 19.9375H50.5625C50.8111 19.9375 51.0496 19.8387 51.2254 19.6629C51.4012 19.4871 51.5 19.2486 51.5 19C51.5 18.7514 51.4012 18.5129 51.2254 18.3371C51.0496 18.1613 50.8111 18.0625 50.5625 18.0625Z" fill="white"/>
<path d="M50.5625 25.5625H44.9375C44.6889 25.5625 44.4504 25.6613 44.2746 25.8371C44.0988 26.0129 44 26.2514 44 26.5C44 26.7486 44.0988 26.9871 44.2746 27.1629C44.4504 27.3387 44.6889 27.4375 44.9375 27.4375H50.5625C50.8111 27.4375 51.0496 27.3387 51.2254 27.1629C51.4012 26.9871 51.5 26.7486 51.5 26.5C51.5 26.2514 51.4012 26.0129 51.2254 25.8371C51.0496 25.6613 50.8111 25.5625 50.5625 25.5625Z" fill="white"/>
<path d="M50.5625 21.8125H44.9375C44.6889 21.8125 44.4504 21.9113 44.2746 22.0871C44.0988 22.2629 44 22.5014 44 22.75C44 22.9986 44.0988 23.2371 44.2746 23.4129C44.4504 23.5887 44.6889 23.6875 44.9375 23.6875H50.5625C50.8111 23.6875 51.0496 23.5887 51.2254 23.4129C51.4012 23.2371 51.5 22.9986 51.5 22.75C51.5 22.5014 51.4012 22.2629 51.2254 22.0871C51.0496 21.9113 50.8111 21.8125 50.5625 21.8125Z" fill="white"/>
<path d="M50.5625 4.9375H44.9375C44.6889 4.9375 44.4504 5.03627 44.2746 5.21209C44.0988 5.3879 44 5.62636 44 5.875V9.625C44 9.87364 44.0988 10.1121 44.2746 10.2879C44.4504 10.4637 44.6889 10.5625 44.9375 10.5625H50.5625C50.8111 10.5625 51.0496 10.4637 51.2254 10.2879C51.4012 10.1121 51.5 9.87364 51.5 9.625V5.875C51.5 5.62636 51.4012 5.3879 51.2254 5.21209C51.0496 5.03627 50.8111 4.9375 50.5625 4.9375ZM49.625 8.6875H45.875V6.8125H49.625V8.6875Z" fill="white"/>
</svg>
