<svg width="54" height="40" viewBox="0 0 54 40" fill="none" xmlns="http://www.w3.org/2000/svg">
<path d="M53.499 0.312994C53.1919 0.161541 52.8254 0.197295 52.5533 0.405279L37.9221 11.5928C37.2011 12.1493 37.0088 13.1562 37.4736 13.9395L35.165 14.5688L31.7961 13.1344C31.7373 13.1092 31.6761 13.0903 31.6133 13.0782C28.3813 12.4607 26.7056 13.0563 25.8398 13.7198H16.6419C16.9573 12.9647 16.7254 12.092 16.077 11.5928L1.44671 0.405174C1.17482 0.196979 0.808313 0.161119 0.501293 0.312783C0.194168 0.464447 -0.000105421 0.777268 4.81758e-08 1.11972V22.7197C-0.000105421 23.0428 0.172969 23.341 0.453516 23.501L6.02406 26.6836C6.2948 26.8388 6.6015 26.9203 6.91348 26.92C7.37132 26.9188 7.81154 26.7437 8.14514 26.4302L9.18918 27.2644C8.58178 28.04 8.4491 29.0866 8.84366 29.9893C9.23832 30.892 10.0966 31.5053 11.0785 31.5861C11.155 31.5931 11.2306 31.5958 11.3061 31.5958C11.4445 31.5945 11.5827 31.5826 11.7193 31.56C11.7755 32.2024 12.029 32.8117 12.4452 33.3044L12.4462 33.3053C12.9848 33.9444 13.7566 34.3416 14.5898 34.4083C14.6786 34.4162 14.7673 34.4197 14.8561 34.4197C14.8697 34.4197 14.8828 34.4164 14.8963 34.4162C14.9214 35.0012 15.1393 35.5615 15.5161 36.0096C16.0287 36.6139 16.7813 36.9618 17.5736 36.9606C17.8886 36.9601 18.2008 36.9035 18.4958 36.7935C18.7962 37.8668 19.7346 38.6388 20.8458 38.7264C20.9223 38.7335 20.9979 38.7361 21.0734 38.7361C21.6926 38.7398 22.2931 38.5237 22.768 38.1262L24.1793 37.0357L27.5027 39.2565C28.017 39.5982 28.6209 39.7804 29.2385 39.7802C29.4504 39.7803 29.6617 39.7595 29.8695 39.7178C31.2234 39.4482 32.2415 38.3246 32.3769 36.9508C33.2777 37.2257 34.2547 37.0767 35.0325 36.5456C35.8103 36.0146 36.305 35.159 36.3771 34.2199C37.4196 34.5644 38.5662 34.3381 39.3995 33.6232C40.2328 32.9083 40.631 31.8094 40.4492 30.7268C41.351 30.6237 42.1623 30.1305 42.6691 29.3774C43.1714 28.6203 43.3232 27.6832 43.0853 26.8062L44.86 25.0321L45.5844 26.1185C46.1098 26.9053 47.154 27.1519 47.9759 26.6836L53.5465 23.501C53.827 23.3409 54.0001 23.0427 54 22.7197V1.11972C54 0.777479 53.8058 0.464764 53.499 0.312994ZM1.80004 22.1977V2.94085L11.8481 10.6243L3.6064 23.2297L1.80004 22.1977ZM6.91696 25.1209L5.17177 24.1239L13.2816 11.7205L14.9836 13.0219L6.91696 25.1209ZM11.8687 29.5875C11.6924 29.7415 11.4601 29.8157 11.2271 29.7924C10.8795 29.763 10.5819 29.5315 10.4678 29.2018C10.3537 28.8721 10.4447 28.5063 10.6998 28.2683L12.9507 26.5281C13.109 26.3932 13.3105 26.3193 13.5185 26.3198C13.543 26.3198 13.5676 26.3206 13.5923 26.3224C13.94 26.3519 14.2379 26.5836 14.3519 26.9134C14.466 27.2433 14.3749 27.6094 14.1196 27.8473L11.8687 29.5875ZM14.7384 32.6145C14.2013 32.5701 13.7418 32.2105 13.5697 31.6998C13.3976 31.189 13.5457 30.6247 13.9466 30.2643L16.781 28.0724C17.1977 27.7193 17.786 27.6521 18.2717 27.9019C18.7573 28.1519 19.0446 28.6697 18.9995 29.2141C18.9738 29.5472 18.8236 29.8586 18.5788 30.0862L17.8076 30.688L15.722 32.2999C15.4496 32.5324 15.0952 32.6458 14.7384 32.6145ZM19.3351 34.0093L19.3331 34.0114L18.1319 34.9488C17.9537 35.1001 17.7229 35.1742 17.49 35.1549C17.2571 35.1356 17.0415 35.0244 16.8908 34.846C16.7388 34.6684 16.6648 34.4372 16.6852 34.2044C16.7006 33.9833 16.8011 33.7765 16.9655 33.6278L19.0694 31.9858L19.6901 31.5061C19.6969 31.5003 19.7016 31.4929 19.7084 31.487L20.344 30.9911C20.502 30.856 20.703 30.7818 20.9109 30.782C20.9359 30.7819 20.9608 30.783 20.9855 30.7854C21.3339 30.8149 21.632 31.0471 21.7455 31.3778C21.8591 31.7083 21.7669 32.0748 21.5102 32.3121L19.405 33.9552L19.3351 34.0093ZM23.8869 34.9875L21.636 36.7278C21.4603 36.8829 21.2275 36.9572 20.9944 36.9326C20.647 36.9033 20.3495 36.672 20.2353 36.3426C20.1211 36.0132 20.2117 35.6474 20.4664 35.4094L20.5076 35.3773L22.718 33.6684C23.0837 33.3596 23.629 33.3992 23.9465 33.7573C24.2638 34.1155 24.2375 34.6616 23.8869 34.9875ZM41.1706 28.3808C40.7587 28.9905 39.9364 29.1619 39.3152 28.7675L39.3081 28.7631L33.3974 24.678C33.133 24.4941 32.7907 24.4657 32.4995 24.6033C32.2084 24.7408 32.0129 25.0236 31.9871 25.3445C31.9613 25.6655 32.1089 25.9758 32.3743 26.1581L38.0939 30.1121L38.0968 30.115C38.5503 30.416 38.7775 30.9608 38.6719 31.4948C38.5663 32.0288 38.1491 32.4464 37.6151 32.5522C37.2692 32.6241 36.9089 32.5551 36.614 32.3605L30.699 28.2789C30.2898 27.9974 29.73 28.1004 29.4478 28.5091C29.1657 28.9178 29.2677 29.4778 29.676 29.7607L33.9961 32.7413L33.9975 32.7428C34.6214 33.181 34.7922 34.0313 34.386 34.6764C33.9803 35.2913 33.1557 35.4656 32.5358 35.0675L30.944 33.9378L30.9433 33.9373H30.9431L29.3208 32.7859C29.0586 32.5996 28.717 32.5674 28.4247 32.7015C28.1323 32.8354 27.9336 33.1152 27.9034 33.4353C27.8733 33.7554 28.0162 34.0674 28.2784 34.2537L29.9471 35.4376C30.0276 35.5026 30.1039 35.5725 30.176 35.6467C30.6851 36.1294 30.7409 36.9211 30.3045 37.4704C29.8682 38.0196 29.0844 38.1444 28.499 37.7578L25.5346 35.7766C26.0378 34.9997 26.1016 34.0172 25.7033 33.1817C25.3049 32.3462 24.5016 31.7772 23.5811 31.6789C23.6019 30.2778 22.5308 29.1015 21.1338 28.9916C21.0183 28.9848 20.9024 28.9857 20.787 28.9945C20.7583 27.8866 20.1451 26.8769 19.1755 26.3404C18.2059 25.8038 17.0247 25.8206 16.0707 26.3846C15.8013 25.5381 15.1295 24.8803 14.2774 24.6289C13.4254 24.3775 12.5042 24.5651 11.8183 25.1298L10.5892 26.0796L9.18749 24.9597L15.4812 15.5198H23.3811C22.6978 16.1195 22.379 17.0335 22.541 17.928C22.7293 19.0137 23.5902 19.8576 24.6794 20.0242C26.3442 20.2598 28.0416 20.0152 29.5723 19.3193L31.8671 20.7792C31.9184 20.8087 31.9727 20.8331 32.029 20.852L40.8029 26.5027C40.9762 26.6219 41.1218 26.7768 41.2301 26.957C41.2345 26.9676 41.2398 26.9773 41.245 26.9878C41.4779 27.4306 41.4492 27.9653 41.1706 28.3808ZM42.0916 25.2548C41.9961 25.1623 41.8948 25.0759 41.7885 24.9962L32.8878 19.2631C32.8469 19.2433 32.8044 19.2268 32.7608 19.2137L30.1131 17.5298C29.831 17.3504 29.4726 17.3419 29.1824 17.5079C27.8882 18.1796 26.4191 18.4382 24.9733 18.2488C24.636 18.2089 24.3663 17.9497 24.3133 17.6142C24.2468 17.2629 24.4181 16.9095 24.7352 16.7441C25.4092 16.393 26.0426 15.9689 26.6239 15.4794C26.6862 15.4269 26.7374 15.3623 26.7742 15.2896C26.8027 15.254 26.8344 15.2214 26.8691 15.192C27.1328 14.9661 28.2201 14.2815 31.181 14.829L34.7476 16.3477C34.9335 16.4285 35.1414 16.4428 35.3365 16.3881L38.5173 15.5207L43.8418 23.5051L42.0916 25.2548ZM47.083 25.1209L39.0155 13.0228L40.7185 11.7205L48.8282 24.1239L47.083 25.1209ZM52.2 22.1977L50.3936 23.2296L42.152 10.6244L52.2 2.94075V22.1977Z" fill="white"/>
</svg>
