<svg width="58" height="43" viewBox="0 0 58 43" fill="none" xmlns="http://www.w3.org/2000/svg">
<path d="M56.1875 35.125H52.4375V3.25C52.4366 2.50435 52.14 1.78948 51.6128 1.26222C51.0855 0.734963 50.3707 0.438368 49.625 0.4375H8.375C7.62934 0.438368 6.91448 0.734963 6.38722 1.26222C5.85996 1.78948 5.56337 2.50435 5.5625 3.25V35.125H1.8125C1.56386 35.125 1.3254 35.2238 1.14959 35.3996C0.973772 35.5754 0.875 35.8139 0.875 36.0625V38.1719C0.876334 39.3525 1.34593 40.4844 2.18076 41.3192C3.0156 42.1541 4.14749 42.6237 5.32812 42.625H52.6719C53.8525 42.6237 54.9844 42.1541 55.8192 41.3192C56.6541 40.4844 57.1237 39.3525 57.125 38.1719V36.0625C57.125 35.8139 57.0262 35.5754 56.8504 35.3996C56.6746 35.2238 56.4361 35.125 56.1875 35.125ZM7.4375 3.25C7.43778 3.00145 7.53664 2.76315 7.7124 2.5874C7.88815 2.41164 8.12645 2.31278 8.375 2.3125H49.625C49.8736 2.31278 50.1119 2.41164 50.2876 2.5874C50.4634 2.76315 50.5622 3.00145 50.5625 3.25V35.125H35.5625C35.4394 35.125 35.3175 35.1492 35.2037 35.1964C35.09 35.2435 34.9866 35.3125 34.8996 35.3996L33.2993 37H24.7007L23.1004 35.3996C23.0134 35.3125 22.91 35.2435 22.7963 35.1964C22.6825 35.1492 22.5606 35.125 22.4375 35.125H7.4375V3.25ZM55.25 38.1719C55.2492 38.8554 54.9774 39.5107 54.494 39.994C54.0107 40.4774 53.3554 40.7492 52.6719 40.75H5.32812C4.6446 40.7492 3.9893 40.4774 3.50597 39.994C3.02265 39.5107 2.75078 38.8554 2.75 38.1719V37H22.0493L23.6496 38.6004C23.7366 38.6875 23.84 38.7565 23.9537 38.8036C24.0675 38.8508 24.1894 38.875 24.3125 38.875H33.6875C33.8106 38.875 33.9325 38.8508 34.0463 38.8036C34.16 38.7565 34.2634 38.6875 34.3504 38.6004L35.9507 37H55.25V38.1719Z" fill="white"/>
<path d="M48.6875 32.3125V5.125C48.6875 4.87636 48.5887 4.6379 48.4129 4.46209C48.2371 4.28627 47.9986 4.1875 47.75 4.1875H10.25C10.0014 4.1875 9.7629 4.28627 9.58709 4.46209C9.41127 4.6379 9.3125 4.87636 9.3125 5.125V32.3125C9.3125 32.5611 9.41127 32.7996 9.58709 32.9754C9.7629 33.1512 10.0014 33.25 10.25 33.25H47.75C47.9986 33.25 48.2371 33.1512 48.4129 32.9754C48.5887 32.7996 48.6875 32.5611 48.6875 32.3125ZM46.8125 31.375H11.1875V6.0625H46.8125V31.375Z" fill="white"/>
<path d="M18.6875 29.5H42.125C42.3736 29.5 42.6121 29.4012 42.7879 29.2254C42.9637 29.0496 43.0625 28.8111 43.0625 28.5625V22.9375C43.0625 22.6889 42.9637 22.4504 42.7879 22.2746C42.6121 22.0988 42.3736 22 42.125 22H18.6875C18.4389 22 18.2004 22.0988 18.0246 22.2746C17.8488 22.4504 17.75 22.6889 17.75 22.9375V28.5625C17.75 28.8111 17.8488 29.0496 18.0246 29.2254C18.2004 29.4012 18.4389 29.5 18.6875 29.5ZM37.4375 23.875H41.1875V27.625H37.4375V23.875ZM19.625 23.875H35.5625V27.625H19.625V23.875Z" fill="white"/>
<path d="M22.4375 24.8125H21.5C21.2514 24.8125 21.0129 24.9113 20.8371 25.0871C20.6613 25.2629 20.5625 25.5014 20.5625 25.75C20.5625 25.9986 20.6613 26.2371 20.8371 26.4129C21.0129 26.5887 21.2514 26.6875 21.5 26.6875H22.4375C22.6861 26.6875 22.9246 26.5887 23.1004 26.4129C23.2762 26.2371 23.375 25.9986 23.375 25.75C23.375 25.5014 23.2762 25.2629 23.1004 25.0871C22.9246 24.9113 22.6861 24.8125 22.4375 24.8125Z" fill="white"/>
<path d="M26.1875 24.8125H25.25C25.0014 24.8125 24.7629 24.9113 24.5871 25.0871C24.4113 25.2629 24.3125 25.5014 24.3125 25.75C24.3125 25.9986 24.4113 26.2371 24.5871 26.4129C24.7629 26.5887 25.0014 26.6875 25.25 26.6875H26.1875C26.4361 26.6875 26.6746 26.5887 26.8504 26.4129C27.0262 26.2371 27.125 25.9986 27.125 25.75C27.125 25.5014 27.0262 25.2629 26.8504 25.0871C26.6746 24.9113 26.4361 24.8125 26.1875 24.8125Z" fill="white"/>
<path d="M29.9375 24.8125H29C28.7514 24.8125 28.5129 24.9113 28.3371 25.0871C28.1613 25.2629 28.0625 25.5014 28.0625 25.75C28.0625 25.9986 28.1613 26.2371 28.3371 26.4129C28.5129 26.5887 28.7514 26.6875 29 26.6875H29.9375C30.1861 26.6875 30.4246 26.5887 30.6004 26.4129C30.7762 26.2371 30.875 25.9986 30.875 25.75C30.875 25.5014 30.7762 25.2629 30.6004 25.0871C30.4246 24.9113 30.1861 24.8125 29.9375 24.8125Z" fill="white"/>
<path d="M33.6875 24.8125H32.75C32.5014 24.8125 32.2629 24.9113 32.0871 25.0871C31.9113 25.2629 31.8125 25.5014 31.8125 25.75C31.8125 25.9986 31.9113 26.2371 32.0871 26.4129C32.2629 26.5887 32.5014 26.6875 32.75 26.6875H33.6875C33.9361 26.6875 34.1746 26.5887 34.3504 26.4129C34.5262 26.2371 34.625 25.9986 34.625 25.75C34.625 25.5014 34.5262 25.2629 34.3504 25.0871C34.1746 24.9113 33.9361 24.8125 33.6875 24.8125Z" fill="white"/>
<path d="M16.1618 17.3763C16.3341 17.3761 16.503 17.3286 16.65 17.2387C16.797 17.1489 16.9164 17.0203 16.9951 16.8671C17.0738 16.7138 17.1088 16.5418 17.0961 16.37C17.0835 16.1982 17.0238 16.0332 16.9235 15.8931C16.2417 14.9398 15.8752 13.7971 15.8752 12.625C15.8752 11.4529 16.2417 10.3102 16.9235 9.35688C16.997 9.25686 17.0498 9.14327 17.079 9.02268C17.1082 8.90209 17.1131 8.7769 17.0936 8.65438C17.074 8.53186 17.0304 8.41443 16.9651 8.30892C16.8998 8.2034 16.8142 8.11189 16.7133 8.03969C16.6124 7.96749 16.4982 7.91604 16.3773 7.88831C16.2563 7.86059 16.1311 7.85715 16.0088 7.87818C15.8866 7.89922 15.7697 7.94432 15.665 8.01087C15.5602 8.07742 15.4698 8.16409 15.3988 8.26586C14.4891 9.53745 14 11.0618 14 12.6252C14 14.1887 14.4891 15.713 15.3988 16.9846C15.4856 17.106 15.6001 17.2048 15.7328 17.273C15.8655 17.3411 16.0126 17.3765 16.1618 17.3763Z" fill="white"/>
<path d="M19.5641 15.4314C19.7363 15.4313 19.9052 15.3837 20.0522 15.2939C20.1992 15.2041 20.3186 15.0755 20.3974 14.9222C20.4761 14.769 20.511 14.597 20.4984 14.4252C20.4858 14.2534 20.426 14.0884 20.3258 13.9483C20.0987 13.6306 19.9766 13.2499 19.9766 12.8594C19.9766 12.4689 20.0987 12.0881 20.3258 11.7705C20.3987 11.6704 20.4511 11.5569 20.4799 11.4365C20.5087 11.3161 20.5134 11.1912 20.4937 11.069C20.474 10.9468 20.4302 10.8297 20.365 10.7245C20.2998 10.6192 20.2144 10.528 20.1137 10.4559C20.013 10.3839 19.8991 10.3325 19.7785 10.3047C19.6578 10.2769 19.5329 10.2733 19.4108 10.2941C19.2888 10.3149 19.1721 10.3596 19.0674 10.4257C18.9627 10.4918 18.8722 10.578 18.801 10.6793C18.3461 11.3152 18.1016 12.0775 18.1016 12.8594C18.1016 13.6412 18.3461 14.4035 18.801 15.0394C18.8878 15.1608 19.0023 15.2598 19.135 15.3279C19.2677 15.3961 19.4148 15.4316 19.5641 15.4314Z" fill="white"/>
<path d="M36.0406 11.8197C36.036 11.8169 36.0324 11.8137 36.0276 11.811L29.4651 8.06101C29.3235 7.98007 29.1631 7.9375 29 7.9375C28.8368 7.9375 28.6765 7.98007 28.5349 8.06101L21.9724 11.811C21.8289 11.893 21.7096 12.0115 21.6267 12.1544C21.5437 12.2974 21.5 12.4597 21.5 12.625C21.5 12.7903 21.5437 12.9526 21.6267 13.0956C21.7096 13.2385 21.8289 13.357 21.9724 13.439L24.3125 14.7762V18.7254C24.3125 18.9345 24.3824 19.1375 24.5111 19.3023C24.6398 19.4671 24.8198 19.5841 25.0227 19.6348C27.6343 20.2854 30.3657 20.2854 32.9773 19.6348C33.1802 19.5841 33.3602 19.4671 33.4889 19.3023C33.6175 19.1375 33.6875 18.9345 33.6875 18.7254V14.7762L34.625 14.2405V16.375C34.625 16.6236 34.7238 16.8621 34.8996 17.0379C35.0754 17.2137 35.3138 17.3125 35.5625 17.3125C35.8111 17.3125 36.0496 17.2137 36.2254 17.0379C36.4012 16.8621 36.5 16.6236 36.5 16.375V12.625C36.4999 12.4624 36.4576 12.3027 36.377 12.1615C36.2965 12.0203 36.1805 11.9025 36.0406 11.8197ZM29 9.95476L32.0323 11.6875H29C28.7514 11.6875 28.5129 11.7863 28.3371 11.9621C28.1613 12.1379 28.0625 12.3764 28.0625 12.625C28.0625 12.8736 28.1613 13.1121 28.3371 13.2879C28.5129 13.4637 28.7514 13.5625 29 13.5625H31.9433C31.9292 13.5859 31.9163 13.6105 31.9044 13.6356L29 15.2952L24.327 12.625L29 9.95476ZM31.8125 17.9748C29.9552 18.3398 28.0447 18.3398 26.1875 17.9748V15.8477L28.5349 17.189C28.6765 17.2699 28.8368 17.3125 29 17.3125C29.1631 17.3125 29.3235 17.2699 29.4651 17.189L31.8125 15.8477V17.9748Z" fill="white"/>
</svg>
