<svg width="51" height="58" viewBox="0 0 51 58" fill="none" xmlns="http://www.w3.org/2000/svg">
<path d="M11.9375 13.0625H32.5625C32.8111 13.0625 33.0496 12.9637 33.2254 12.7879C33.4012 12.6121 33.5 12.3736 33.5 12.125C33.5 11.8764 33.4012 11.6379 33.2254 11.4621C33.0496 11.2863 32.8111 11.1875 32.5625 11.1875H11.9375C11.6889 11.1875 11.4504 11.2863 11.2746 11.4621C11.0988 11.6379 11 11.8764 11 12.125C11 12.3736 11.0988 12.6121 11.2746 12.7879C11.4504 12.9637 11.6889 13.0625 11.9375 13.0625Z" fill="white"/>
<path d="M11.9375 18.6875H32.5625C32.8111 18.6875 33.0496 18.5887 33.2254 18.4129C33.4012 18.2371 33.5 17.9986 33.5 17.75C33.5 17.5014 33.4012 17.2629 33.2254 17.0871C33.0496 16.9113 32.8111 16.8125 32.5625 16.8125H11.9375C11.6889 16.8125 11.4504 16.9113 11.2746 17.0871C11.0988 17.2629 11 17.5014 11 17.75C11 17.9986 11.0988 18.2371 11.2746 18.4129C11.4504 18.5887 11.6889 18.6875 11.9375 18.6875Z" fill="white"/>
<path d="M11.9375 24.3125H32.5625C32.8111 24.3125 33.0496 24.2137 33.2254 24.0379C33.4012 23.8621 33.5 23.6236 33.5 23.375C33.5 23.1264 33.4012 22.8879 33.2254 22.7121C33.0496 22.5363 32.8111 22.4375 32.5625 22.4375H11.9375C11.6889 22.4375 11.4504 22.5363 11.2746 22.7121C11.0988 22.8879 11 23.1264 11 23.375C11 23.6236 11.0988 23.8621 11.2746 24.0379C11.4504 24.2137 11.6889 24.3125 11.9375 24.3125Z" fill="white"/>
<path d="M11.9375 29.9375H32.5625C32.8111 29.9375 33.0496 29.8387 33.2254 29.6629C33.4012 29.4871 33.5 29.2486 33.5 29C33.5 28.7514 33.4012 28.5129 33.2254 28.3371C33.0496 28.1613 32.8111 28.0625 32.5625 28.0625H11.9375C11.6889 28.0625 11.4504 28.1613 11.2746 28.3371C11.0988 28.5129 11 28.7514 11 29C11 29.2486 11.0988 29.4871 11.2746 29.6629C11.4504 29.8387 11.6889 29.9375 11.9375 29.9375Z" fill="white"/>
<path d="M11.9375 35.5625H19.4375C19.6861 35.5625 19.9246 35.4637 20.1004 35.2879C20.2762 35.1121 20.375 34.8736 20.375 34.625C20.375 34.3764 20.2762 34.1379 20.1004 33.9621C19.9246 33.7863 19.6861 33.6875 19.4375 33.6875H11.9375C11.6889 33.6875 11.4504 33.7863 11.2746 33.9621C11.0988 34.1379 11 34.3764 11 34.625C11 34.8736 11.0988 35.1121 11.2746 35.2879C11.4504 35.4637 11.6889 35.5625 11.9375 35.5625Z" fill="white"/>
<path d="M48.9837 23.0252C48.34 22.6488 47.5732 22.5432 46.8517 22.7315C46.1302 22.9198 45.5128 23.3866 45.1351 24.0296L42.8745 27.8867V4.625C42.8745 4.37636 42.7757 4.1379 42.5999 3.96209C42.4241 3.78627 42.1856 3.6875 41.937 3.6875H34.8253C34.8253 3.6875 32.0084 0.81875 31.8956 0.915312C31.8077 0.88862 31.7164 0.875036 31.6245 0.875H4.43697C4.18833 0.875 3.94987 0.973772 3.77406 1.14959C3.59824 1.3254 3.49947 1.56386 3.49947 1.8125V4.74371C2.69419 4.9513 1.98075 5.42068 1.47136 6.07802C0.961977 6.73537 0.685547 7.54339 0.685547 8.375C0.685547 9.20661 0.961977 10.0146 1.47136 10.672C1.98075 11.3293 2.69419 11.7987 3.49947 12.0063V14.1187C2.69419 14.3263 1.98075 14.7957 1.47136 15.453C0.961977 16.1104 0.685547 16.9184 0.685547 17.75C0.685547 18.5816 0.961977 19.3896 1.47136 20.047C1.98075 20.7043 2.69419 21.1737 3.49947 21.3813V23.4937C2.69419 23.7013 1.98075 24.1707 1.47136 24.828C0.961977 25.4854 0.685547 26.2934 0.685547 27.125C0.685547 27.9566 0.961977 28.7646 1.47136 29.422C1.98075 30.0793 2.69419 30.5487 3.49947 30.7563V31.9312C2.69419 32.1388 1.98075 32.6082 1.47136 33.2655C0.961977 33.9229 0.685547 34.7309 0.685547 35.5625C0.685547 36.3941 0.961977 37.2021 1.47136 37.8595C1.98075 38.5168 2.69419 38.9862 3.49947 39.1938V44.9375C3.49947 45.1861 3.59824 45.4246 3.77406 45.6004C3.94987 45.7762 4.18833 45.875 4.43697 45.875H5.37447V48.6875C5.37447 48.9361 5.47324 49.1746 5.64906 49.3504C5.82487 49.5262 6.06333 49.625 6.31197 49.625H30.1353L29.4928 50.7212C29.4353 50.8195 29.3963 50.9276 29.3779 51.04C29.3769 51.0454 29.3754 51.05 29.3746 51.0555L29.3722 51.0709V51.0744L28.6222 56.0478C28.5943 56.2331 28.6226 56.4225 28.7033 56.5916C28.7841 56.7606 28.9136 56.9016 29.0753 56.9964C29.2369 57.0911 29.4233 57.1352 29.6102 57.123C29.7972 57.1108 29.9762 57.0429 30.1242 56.928L34.1119 53.832C34.3674 53.6336 34.4922 53.5122 34.4724 53.3493L36.6549 49.625H41.937C42.1856 49.625 42.4241 49.5262 42.5999 49.3504C42.7757 49.1746 42.8745 48.9361 42.8745 48.6875V39.0123L49.9878 26.8736C50.364 26.2299 50.4697 25.4633 50.2814 24.7418C50.0932 24.0204 49.6265 23.403 48.9837 23.0252ZM47.3249 24.5445C47.5043 24.4977 47.6936 24.5051 47.8688 24.5659C48.044 24.6266 48.1972 24.738 48.3091 24.8858C48.421 25.0336 48.4866 25.2114 48.4975 25.3965C48.5084 25.5816 48.4642 25.7657 48.3704 25.9257L47.8964 26.7343L46.2792 25.7863L46.7534 24.9777C46.8153 24.8713 46.8977 24.7782 46.9958 24.7039C47.0939 24.6295 47.2057 24.5754 47.3249 24.5445ZM33.202 51.8084L31.5849 50.8604L43.9088 29.8307L45.526 30.7788L33.202 51.8084ZM32.562 4.07586L35.9236 7.4375H32.562V4.07586ZM44.8568 28.213L45.3307 27.4044L46.9485 28.3524L46.4745 29.161L44.8568 28.213ZM40.9995 5.5625V30.875C40.9995 30.9358 41.0055 30.9965 41.0173 31.0562L39.1245 34.2861V8.375C39.1246 8.25208 39.1005 8.13034 39.0535 8.01674C39.0065 7.90315 38.9376 7.79994 38.8507 7.71301L38.8499 7.71207L36.7003 5.5625H40.9995ZM5.37447 2.75H30.687V8.375C30.687 8.62364 30.7857 8.8621 30.9616 9.03791C31.1374 9.21373 31.3758 9.3125 31.6245 9.3125H37.2495V37.4855L33.4317 44H5.37447V39.1939C6.0235 39.0268 6.61583 38.6886 7.08971 38.2147C7.56359 37.7407 7.90167 37.1483 8.06873 36.4993C8.1307 36.2584 8.09445 36.0028 7.96795 35.7887C7.84145 35.5745 7.63507 35.4194 7.3942 35.3574C7.27493 35.3267 7.15079 35.3198 7.02885 35.3371C6.90692 35.3544 6.78959 35.3956 6.68356 35.4582C6.46942 35.5847 6.3143 35.7911 6.25232 36.032C6.1902 36.273 6.08055 36.4992 5.9298 36.6973C5.77905 36.8954 5.59025 37.0614 5.37447 37.1855V30.7564C6.0235 30.5893 6.61583 30.2511 7.08971 29.7772C7.56359 29.3032 7.90167 28.7109 8.06873 28.0618C8.1307 27.8209 8.09445 27.5653 7.96795 27.3512C7.84145 27.137 7.63507 26.9819 7.3942 26.9199C7.15333 26.8579 6.8977 26.8942 6.68356 27.0207C6.46942 27.1472 6.3143 27.3536 6.25232 27.5945C6.1902 27.8355 6.08055 28.0617 5.9298 28.2598C5.77905 28.4579 5.59025 28.6239 5.37447 28.748V21.3814C6.0235 21.2143 6.61583 20.8761 7.08971 20.4022C7.56359 19.9282 7.90167 19.3359 8.06873 18.6868C8.1307 18.4459 8.09445 18.1903 7.96795 17.9762C7.84145 17.762 7.63507 17.6069 7.3942 17.5449C7.15333 17.4829 6.8977 17.5192 6.68356 17.6457C6.46942 17.7722 6.3143 17.9786 6.25232 18.2195C6.1902 18.4605 6.08055 18.6867 5.9298 18.8848C5.77905 19.0829 5.59025 19.2489 5.37447 19.373V12.0064C6.0235 11.8393 6.61583 11.5011 7.08971 11.0272C7.56359 10.5532 7.90167 9.96085 8.06873 9.3118C8.1307 9.07093 8.09445 8.8153 7.96795 8.60116C7.84145 8.38702 7.63507 8.2319 7.3942 8.16992C7.15333 8.10795 6.8977 8.1442 6.68356 8.2707C6.46942 8.3972 6.3143 8.60358 6.25232 8.84445C6.1902 9.08551 6.08055 9.31173 5.9298 9.50983C5.77905 9.70793 5.59025 9.87392 5.37447 9.99805V2.75ZM2.56197 8.375C2.56241 8.04629 2.64926 7.72348 2.8138 7.43892C2.97834 7.15436 3.2148 6.91806 3.49947 6.75371V9.99629C3.2148 9.83194 2.97834 9.59564 2.8138 9.31108C2.64926 9.02652 2.56241 8.70371 2.56197 8.375ZM2.56197 17.75C2.56241 17.4213 2.64926 17.0985 2.8138 16.8139C2.97834 16.5294 3.2148 16.2931 3.49947 16.1287V19.3713C3.2148 19.2069 2.97834 18.9706 2.8138 18.6861C2.64926 18.4015 2.56241 18.0787 2.56197 17.75ZM2.56197 27.125C2.56241 26.7963 2.64926 26.4735 2.8138 26.1889C2.97834 25.9044 3.2148 25.6681 3.49947 25.5037V28.7463C3.2148 28.5819 2.97834 28.3456 2.8138 28.0611C2.64926 27.7765 2.56241 27.4537 2.56197 27.125ZM2.56197 35.5625C2.56241 35.2338 2.64926 34.911 2.8138 34.6264C2.97834 34.3419 3.2148 34.1056 3.49947 33.9412V37.1838C3.2148 37.0194 2.97834 36.7831 2.8138 36.4986C2.64926 36.214 2.56241 35.8912 2.56197 35.5625ZM7.24947 47.75V45.875H32.3329L31.234 47.75H7.24947ZM31.0222 52.7042L31.8682 53.2L30.8253 54.0096L31.0222 52.7042ZM40.9995 47.75H37.7534L40.9995 42.2116V47.75Z" fill="white"/>
</svg>
