<svg width="57" height="57" viewBox="0 0 57 57" fill="none" xmlns="http://www.w3.org/2000/svg">
<path d="M56.165 44.6664C56.6263 44.6664 57 44.2926 57 43.8314V42.5518C57 40.2436 55.5271 38.2074 53.3344 37.4848L48.1157 35.7677V33.9609C49.9329 32.8706 51.152 30.8815 51.152 28.6125V25.0139C51.152 21.5769 48.3559 18.7808 44.919 18.7808C42.8946 18.7808 41.0932 19.7516 39.9539 21.2513C39.3232 20.0678 38.2537 19.1448 36.9147 18.705L31.6966 16.987V15.1801C33.5138 14.0899 34.7329 12.1008 34.7329 9.83183V6.23304C34.733 2.79612 31.9369 0 28.5 0C25.0631 0 22.267 2.79612 22.267 6.23304V9.83172C22.267 12.1007 23.4861 14.0898 25.3033 15.18V16.9869L20.0857 18.7048C18.7464 19.1448 17.6768 20.0678 17.0461 21.2513C15.9068 19.7515 14.1054 18.7808 12.081 18.7808C8.64407 18.7808 5.84796 21.5769 5.84796 25.0139V28.6125C5.84796 30.8815 7.06711 32.8706 8.88432 33.9609V35.7677L3.66514 37.485C1.47287 38.2074 0 40.2436 0 42.5518V43.8314C0 44.2926 0.373729 44.6664 0.834961 44.6664C1.29619 44.6664 1.66992 44.2926 1.66992 43.8314V42.5518C1.66992 40.9661 2.68178 39.5672 4.18738 39.071L9.07591 37.4625C9.52267 38.6899 10.701 39.5687 12.0809 39.5687C13.4607 39.5687 14.639 38.6898 15.0857 37.4625L19.9736 39.0708C21.045 39.424 21.8752 40.2373 22.2592 41.2681L20.0852 41.9836C17.8923 42.7052 16.419 44.7412 16.419 47.0496V48.0201H6.39324V45.931C6.39324 45.4699 6.01951 45.096 5.55828 45.096C5.09705 45.096 4.72332 45.4699 4.72332 45.931V48.0201H1.66992V47.7317C1.66992 47.2706 1.29619 46.8967 0.834961 46.8967C0.373729 46.8967 0 47.2706 0 47.7317V48.855C0 49.3161 0.373729 49.69 0.834961 49.69H16.419V56.1648C16.419 56.6259 16.7927 56.9998 17.254 56.9998H39.7459C40.2072 56.9998 40.5809 56.6259 40.5809 56.1648V55.0495C40.5809 54.5884 40.2072 54.2146 39.7459 54.2146C39.2847 54.2146 38.911 54.5884 38.911 55.0495V55.3301H35.8577V50.4296C35.8577 49.9685 35.4839 49.5947 35.0227 49.5947C34.5615 49.5947 34.1878 49.9685 34.1878 50.4296V55.3301H22.8122V50.4296C22.8122 49.9685 22.4385 49.5947 21.9773 49.5947C21.5161 49.5947 21.1423 49.9685 21.1423 50.4296V55.3301H18.0889V47.0498C18.0889 45.4642 19.1009 44.0657 20.6072 43.57L25.4951 41.9613C25.942 43.1885 27.1202 44.0673 28.5 44.0673C29.8798 44.0673 31.058 43.1886 31.5049 41.9613L36.3928 43.57C37.8991 44.0658 38.9111 45.4642 38.9111 47.0498V51.1514C38.9111 51.6125 39.2848 51.9863 39.746 51.9863C40.2073 51.9863 40.581 51.6125 40.581 51.1514V49.6902H56.165C56.6263 49.6902 57 49.3164 57 48.8552V47.7319C57 47.2708 56.6263 46.897 56.165 46.897C55.7038 46.897 55.3301 47.2708 55.3301 47.7319V48.0203H52.2767V45.9312C52.2767 45.4701 51.903 45.0962 51.4417 45.0962C50.9805 45.0962 50.6068 45.4701 50.6068 45.9312V48.0203H40.5809V47.0498C40.5809 44.7413 39.1076 42.7055 36.9147 41.9838L34.7407 41.2683C35.1247 40.2377 35.9548 39.4243 37.0258 39.0712L41.9142 37.4627C42.3609 38.69 43.5392 39.5689 44.919 39.5689C46.2989 39.5689 47.4772 38.69 47.924 37.4627L52.8121 39.0712C54.3182 39.5672 55.3301 40.9661 55.3301 42.5518V43.8314C55.3301 44.2926 55.7038 44.6664 56.165 44.6664ZM44.919 20.4506C47.4351 20.4506 49.4821 22.4976 49.4821 25.0138V28.6124C49.4821 31.1286 47.435 33.1756 44.919 33.1756C42.403 33.1756 40.356 31.1286 40.356 28.6124V25.0138C40.356 22.4976 42.403 20.4506 44.919 20.4506ZM23.9369 9.83172V6.23304C23.9369 3.71691 25.9839 1.66992 28.5 1.66992C31.0161 1.66992 33.0631 3.71691 33.0631 6.23304V9.83172C33.0631 12.3478 31.016 14.3948 28.5 14.3948C25.984 14.3948 23.9369 12.3478 23.9369 9.83172ZM28.5 16.0648C29.0266 16.0648 29.5379 15.9985 30.0268 15.8749V17.569C30.0265 17.5769 30.0266 17.5847 30.0268 17.5925C30.0261 18.4338 29.3415 19.118 28.5001 19.118C27.6587 19.118 26.974 18.4338 26.9735 17.5925C26.9735 17.5846 26.9736 17.5768 26.9735 17.569V15.8749C27.4621 15.9984 27.9734 16.0648 28.5 16.0648ZM20.6074 20.2911L25.495 18.6819C25.9418 19.9091 27.1201 20.788 28.4999 20.788C29.8797 20.788 31.058 19.9091 31.5047 18.6819L36.3929 20.2912C37.7887 20.7497 38.7565 21.9719 38.8918 23.425C38.7579 23.9324 38.6859 24.4648 38.6859 25.0138V28.6124C38.6859 28.824 38.6967 29.033 38.7174 29.2392H34.7259C34.5825 25.9285 31.8452 23.279 28.4998 23.279C25.1544 23.279 22.417 25.9285 22.2736 29.2392H18.2822C18.3029 29.033 18.3137 28.824 18.3137 28.6124V25.0138C18.3137 24.4648 18.2417 23.9325 18.1077 23.425C18.2432 21.9721 19.2112 20.7498 20.6074 20.2911ZM28.5 37.6739C25.9839 37.6739 23.9369 35.6269 23.9369 33.1108V29.5121C23.9369 26.996 25.984 24.949 28.5 24.949C31.016 24.949 33.0631 26.996 33.0631 29.5121V33.1108C33.0631 35.6269 31.0161 37.6739 28.5 37.6739ZM7.51777 28.6124V25.0138C7.51777 22.4976 9.56487 20.4506 12.0809 20.4506C14.5969 20.4506 16.6439 22.4976 16.6439 25.0138V28.6124C16.6439 31.1286 14.5969 33.1756 12.0809 33.1756C9.56487 33.1756 7.51777 31.1286 7.51777 28.6124ZM13.6075 36.3721C13.6075 37.214 12.9227 37.8988 12.0809 37.8988C11.239 37.8988 10.5541 37.2139 10.5541 36.3721V34.6557C11.0429 34.7792 11.5542 34.8455 12.0809 34.8455C12.6075 34.8455 13.1188 34.7792 13.6075 34.6557V36.3721ZM20.496 37.4848L15.2776 35.7677V33.9608C16.4453 33.2602 17.3647 32.188 17.8736 30.9091H22.267V33.1108C22.267 35.3797 23.4861 37.3688 25.3033 38.4591V40.2663L23.845 40.7462C23.2965 39.2162 22.0774 38.0061 20.496 37.4848ZM28.5 42.3973C27.6581 42.3973 26.9732 41.7124 26.9732 40.8706V40.8604C26.9732 40.8588 26.9732 40.8571 26.9732 40.8555V39.1541C27.462 39.2777 27.9733 39.3439 28.5 39.3439C29.0267 39.3439 29.5379 39.2777 30.0268 39.1541V40.8555V40.8604V40.8706C30.0268 41.7124 29.3419 42.3973 28.5 42.3973ZM36.5037 37.485C34.9226 38.0061 33.7035 39.2162 33.1551 40.7463L31.6967 40.2664V38.4592C33.5139 37.369 34.733 35.3799 34.733 33.1109V30.9091H39.1264C39.6353 32.1881 40.5547 33.2603 41.7224 33.9608V35.7677L36.5037 37.485ZM44.919 37.8989C44.0771 37.8989 43.3924 37.214 43.3924 36.3722V34.6558C43.8811 34.7794 44.3924 34.8456 44.919 34.8456C45.4456 34.8456 45.9569 34.7794 46.4458 34.6558V36.3722C46.4458 37.214 45.7609 37.8989 44.919 37.8989Z" fill="white"/>
</svg>
