<svg width="55" height="45" viewBox="0 0 55 45" fill="none" xmlns="http://www.w3.org/2000/svg">
<path d="M54.9349 40.2832L50.938 30.9571C50.5492 30.0501 49.8538 29.3409 49.0039 28.9257C49.7219 28.1979 50.166 27.1993 50.166 26.0986V4.39941C50.166 2.17814 48.359 0.371094 46.1377 0.371094H8.8623C6.64104 0.371094 4.83398 2.17814 4.83398 4.39941V26.0986C4.83398 27.1993 5.27807 28.1979 5.99607 28.9257C5.14615 29.3409 4.45081 30.0501 4.06205 30.9571L0.0650977 40.2832C0.0222363 40.3835 0 40.4914 0 40.6006C0 42.8219 1.80705 44.6289 4.02832 44.6289H50.9717C53.1929 44.6289 55 42.8219 55 40.6006C55 40.4914 54.9778 40.3835 54.9349 40.2832ZM6.44531 4.39941C6.44531 3.06663 7.52952 1.98242 8.8623 1.98242H46.1377C47.4705 1.98242 48.5547 3.06663 48.5547 4.39941V26.0986C48.5547 27.4314 47.4705 28.5156 46.1377 28.5156H8.8623C7.52952 28.5156 6.44531 27.4314 6.44531 26.0986V4.39941ZM5.54308 31.5919C5.92442 30.702 6.79647 30.127 7.76467 30.127H47.2354C48.2036 30.127 49.0756 30.702 49.457 31.5919L52.9725 39.7949H2.02748L5.54308 31.5919ZM31.5283 41.4062V43.0176H23.4717V41.4062H31.5283ZM1.75055 41.4062H21.8604V43.0176H4.02832C2.97816 43.0176 2.08323 42.3438 1.75055 41.4062ZM50.9717 43.0176H33.1396V41.4062H53.2495C52.9168 42.3438 52.0218 43.0176 50.9717 43.0176Z" fill="white"/>
<path d="M6.38392 36.5723H9.60658C10.0515 36.5723 10.4122 36.2116 10.4122 35.7666C10.4122 35.3217 10.0515 34.9609 9.60658 34.9609H7.60574L8.29625 33.3496H46.7044L47.395 34.9609H12.8292C12.3843 34.9609 12.0236 35.3217 12.0236 35.7666C12.0236 36.2116 12.3843 36.5723 12.8292 36.5723H48.6168C48.8876 36.5723 49.1404 36.4362 49.2894 36.2102C49.4385 35.984 49.464 35.6982 49.3573 35.4493L47.9762 32.2266C47.8492 31.9305 47.5579 31.7384 47.2356 31.7384H7.76494C7.44267 31.7384 7.15135 31.9305 7.02437 32.2266L5.64325 35.4493C5.53658 35.6982 5.56215 35.9841 5.71114 36.2102C5.86035 36.4362 6.11311 36.5723 6.38392 36.5723Z" fill="white"/>
</svg>
