<svg width="1557" height="104" viewBox="0 0 1557 104" fill="none" xmlns="http://www.w3.org/2000/svg">
<path d="M0.755859 3H85.7359V27.92H33.2359V39.26H56.6159C68.5625 39.26 77.7092 41.8267 84.0559 46.96C90.4959 52 93.7159 59.3267 93.7159 68.94C93.7159 78.9267 90.0759 86.7667 82.7959 92.46C75.5159 98.1533 65.3892 101 52.4159 101H0.755859V3ZM50.1759 77.9C53.4425 77.9 55.9625 77.2 57.7359 75.8C59.6025 74.4 60.5359 72.3933 60.5359 69.78C60.5359 64.74 57.0825 62.22 50.1759 62.22H33.2359V77.9H50.1759Z" fill="white"/>
<path d="M154.912 103.24C144.366 103.24 134.892 101.047 126.492 96.66C118.092 92.2734 111.512 86.2067 106.752 78.46C101.992 70.62 99.6123 61.8 99.6123 52C99.6123 42.2 101.992 33.4267 106.752 25.68C111.512 17.84 118.092 11.7267 126.492 7.34001C134.892 2.95334 144.366 0.76001 154.912 0.76001C165.459 0.76001 174.932 2.95334 183.332 7.34001C191.732 11.7267 198.312 17.84 203.072 25.68C207.832 33.4267 210.212 42.2 210.212 52C210.212 61.8 207.832 70.62 203.072 78.46C198.312 86.2067 191.732 92.2734 183.332 96.66C174.932 101.047 165.459 103.24 154.912 103.24ZM154.912 76.5C159.019 76.5 162.706 75.52 165.972 73.56C169.332 71.5067 171.992 68.66 173.952 65.02C175.912 61.2867 176.892 56.9467 176.892 52C176.892 47.0533 175.912 42.76 173.952 39.12C171.992 35.3867 169.332 32.54 165.972 30.58C162.706 28.5267 159.019 27.5 154.912 27.5C150.806 27.5 147.072 28.5267 143.712 30.58C140.446 32.54 137.832 35.3867 135.872 39.12C133.912 42.76 132.932 47.0533 132.932 52C132.932 56.9467 133.912 61.2867 135.872 65.02C137.832 68.66 140.446 71.5067 143.712 73.56C147.072 75.52 150.806 76.5 154.912 76.5Z" fill="white"/>
<path d="M318.704 3V101H285.664V64.88H255.144V101H222.104V3H255.144V37.72H285.664V3H318.704Z" fill="white"/>
<path d="M434.127 3L394.787 76.78C390.12 85.5533 384.38 92.2267 377.567 96.8C370.847 101.373 363.427 103.66 355.307 103.66C349.054 103.66 342.707 102.353 336.267 99.74L343.967 75.94C348.074 77.06 351.434 77.62 354.047 77.62C356.474 77.62 358.527 77.2 360.207 76.36C361.98 75.52 363.66 74.12 365.247 72.16L327.727 3H362.587L382.047 44.3L402.207 3H434.127Z" fill="white"/>
<path d="M488.766 103.24C478.406 103.24 469.073 101.093 460.766 96.8C452.46 92.4134 445.926 86.3467 441.166 78.6C436.5 70.76 434.166 61.8933 434.166 52C434.166 42.1067 436.5 33.2867 441.166 25.54C445.926 17.7 452.46 11.6333 460.766 7.34001C469.073 2.95334 478.406 0.76001 488.766 0.76001C498.286 0.76001 506.78 2.44001 514.246 5.80001C521.713 9.16001 527.873 14.0133 532.726 20.36L511.866 38.98C505.8 31.3267 498.66 27.5 490.446 27.5C483.54 27.5 477.986 29.74 473.786 34.22C469.586 38.6067 467.486 44.5333 467.486 52C467.486 59.4667 469.586 65.44 473.786 69.92C477.986 74.3067 483.54 76.5 490.446 76.5C498.66 76.5 505.8 72.6733 511.866 65.02L532.726 83.64C527.873 89.9867 521.713 94.84 514.246 98.2C506.78 101.56 498.286 103.24 488.766 103.24Z" fill="white"/>
<path d="M572.982 2.86001L587.262 25.96L601.542 2.86001H639.762L607.982 49.62L642.702 101H603.782L587.262 75.66L571.022 101H533.082L567.522 51.16L535.182 2.86001H572.982Z" fill="white"/>
<path d="M715.365 83.92H678.125L671.545 101H637.945L680.785 3H713.265L756.105 101H721.945L715.365 83.92ZM706.265 60.12L696.745 35.48L687.225 60.12H706.265Z" fill="white"/>
<path d="M861.75 3V101H828.71V64.88H798.19V101H765.15V3H798.19V37.72H828.71V3H861.75Z" fill="white"/>
<path d="M962.614 28.62H933.914V101H901.434V28.62H872.734V3H962.614V28.62Z" fill="white"/>
<path d="M973.51 3H1005.99V53.96L1039.73 3H1070.81V101H1038.33V50.18L1004.73 101H973.51V3Z" fill="white"/>
<path d="M1184.82 3V101H1151.78V64.88H1121.26V101H1088.22V3H1121.26V37.72H1151.78V3H1184.82Z" fill="white"/>
<path d="M1276.86 28.62H1234.72V101H1202.24V3H1276.86V28.62Z" fill="white"/>
<path d="M1420.24 84.2H1407.22V101H1375.16V84.2H1324.34V63.2L1365.92 3H1399.8L1362.84 58.58H1376.14V43.6H1407.22V58.58H1420.24V84.2Z" fill="white"/>
<path d="M1444.8 102.4C1439.48 102.4 1435.05 100.72 1431.5 97.36C1428.05 93.9067 1426.32 89.52 1426.32 84.2C1426.32 78.88 1428.05 74.5867 1431.5 71.32C1435.05 67.96 1439.48 66.28 1444.8 66.28C1450.12 66.28 1454.51 67.96 1457.96 71.32C1461.51 74.5867 1463.28 78.88 1463.28 84.2C1463.28 89.52 1461.51 93.9067 1457.96 97.36C1454.51 100.72 1450.12 102.4 1444.8 102.4Z" fill="white"/>
<path d="M1512.43 103.24C1503.75 103.24 1496.05 101.233 1489.33 97.22C1482.7 93.1133 1477.48 87.2334 1473.65 79.58C1469.92 71.8334 1468.05 62.64 1468.05 52C1468.05 41.36 1469.92 32.2133 1473.65 24.56C1477.48 16.8133 1482.7 10.9333 1489.33 6.92001C1496.05 2.81334 1503.75 0.76001 1512.43 0.76001C1521.11 0.76001 1528.76 2.81334 1535.39 6.92001C1542.11 10.9333 1547.34 16.8133 1551.07 24.56C1554.9 32.2133 1556.81 41.36 1556.81 52C1556.81 62.64 1554.9 71.8334 1551.07 79.58C1547.34 87.2334 1542.11 93.1133 1535.39 97.22C1528.76 101.233 1521.11 103.24 1512.43 103.24ZM1512.43 76.78C1519.9 76.78 1523.63 68.52 1523.63 52C1523.63 35.48 1519.9 27.22 1512.43 27.22C1504.96 27.22 1501.23 35.48 1501.23 52C1501.23 68.52 1504.96 76.78 1512.43 76.78Z" fill="white"/>
</svg>
