<?xml version="1.0" encoding="utf-8"?><svg viewBox="0 0 26 26" xmlns="http://www.w3.org/2000/svg" xmlns:xlink="http://www.w3.org/1999/xlink"><style>:root>svg{display:none}:root>svg:target{display:block}</style><svg fill="none" viewBox="0 0 26 26" id="ic_arrow" xmlns="http://www.w3.org/2000/svg"><path fill-rule="evenodd" clip-rule="evenodd" d="M13 24.375a11.375 11.375 0 1 0 0-22.75 11.375 11.375 0 0 0 0 22.75zM13 0a13 13 0 1 1 0 26 13 13 0 0 1 0-26zM7.312 12.188a.812.812 0 1 0 0 1.624h9.414L13.237 17.3a.814.814 0 1 0 1.15 1.15l4.876-4.875a.813.813 0 0 0 0-1.15L14.388 7.55a.814.814 0 0 0-1.15 1.15l3.488 3.488H7.313z" fill="currentColor"/></svg><svg fill="none" viewBox="0 0 25 25" id="ic_course_info" xmlns="http://www.w3.org/2000/svg"><g clip-path="url(#bclip0)" fill="currentColor"><path d="M24.97 1.867A1.943 1.943 0 0 0 23.135.03c-2.004-.11-5.925-.003-9.675 1.936-1.911.989-3.932 2.665-5.546 4.599l-.059.071-3.66.283a1.933 1.933 0 0 0-1.473.867L.223 11.564c-.253.382-.293.86-.108 1.28.186.419.567.71 1.02.781l3.084.478-.032.18c-.102.614.101 1.245.545 1.689l4.296 4.297a1.947 1.947 0 0 0 1.69.544l.18-.032.477 3.085c.07.453.363.834.782 1.02a1.338 1.338 0 0 0 1.28-.108l3.777-2.498c.505-.334.82-.87.867-1.473l.283-3.661.071-.059c1.934-1.613 3.61-3.635 4.6-5.546 1.939-3.75 2.045-7.67 1.936-9.674zm-8.563 19.19l-3.614 2.39-.466-3.006c1.527-.45 3.038-1.168 4.478-2.132l-.184 2.385a.477.477 0 0 1-.214.364zm-6.343-1.824l-4.297-4.297a.475.475 0 0 1-.135-.412c.128-.764.326-1.49.572-2.176l6.447 6.447c-.823.295-1.56.47-2.175.573a.475.475 0 0 1-.412-.135zM4.306 8.38l2.385-.184c-.964 1.439-1.683 2.95-2.132 4.477l-3.006-.465 2.39-3.614a.477.477 0 0 1 .363-.214zm13.191 7.582a16.792 16.792 0 0 1-3.39 2.218L6.82 10.893a17.083 17.083 0 0 1 2.217-3.39c1.493-1.79 3.35-3.334 5.094-4.236 3.441-1.78 7.067-1.876 8.922-1.775a.48.48 0 0 1 .454.454c.101 1.855.005 5.48-1.775 8.922-.902 1.744-2.446 3.601-4.236 5.094z"/><path d="M17.125 11.535c.938 0 1.875-.357 2.59-1.07a3.638 3.638 0 0 0 1.072-2.59c0-.978-.381-1.898-1.073-2.59a3.666 3.666 0 0 0-5.178 0 3.638 3.638 0 0 0-1.073 2.59c0 .978.38 1.898 1.073 2.59a3.65 3.65 0 0 0 2.589 1.07zM15.57 6.321a2.19 2.19 0 0 1 1.554-.642 2.19 2.19 0 0 1 1.553.642c.415.415.644.967.644 1.554 0 .587-.229 1.139-.643 1.553a2.2 2.2 0 0 1-3.108 0 2.183 2.183 0 0 1-.643-1.553c0-.587.228-1.139.643-1.554zM.747 20.602a.73.73 0 0 0 .518-.214l2.391-2.391A.732.732 0 0 0 2.62 16.96L.23 19.352a.732.732 0 0 0 .517 1.25zM5.848 19.152a.732.732 0 0 0-1.036 0L.215 23.75a.732.732 0 1 0 1.035 1.035l4.598-4.597a.732.732 0 0 0 0-1.036zM7.003 21.344l-2.391 2.39a.732.732 0 1 0 1.036 1.037l2.391-2.392a.732.732 0 0 0-1.036-1.035z"/></g><defs><clipPath id="bclip0"><path fill="#fff" d="M0 0h25v25H0z"/></clipPath></defs></svg><svg fill="none" viewBox="0 0 25 21" id="ic_course_info2" xmlns="http://www.w3.org/2000/svg"><path d="M24.66 17.335l-1.963-2.638V3.621A2.686 2.686 0 0 0 20.013.938H4.987A2.686 2.686 0 0 0 2.303 3.62v11.076L.34 17.335a1.699 1.699 0 0 0-.156 1.786c.292.58.876.942 1.526.942h21.582c.65 0 1.234-.361 1.526-.942a1.699 1.699 0 0 0-.156-1.786zM3.768 3.621c0-.673.547-1.22 1.22-1.22h15.026c.673 0 1.22.547 1.22 1.22v10.587H17.61l-.7-2.812a3.437 3.437 0 0 0-2.052-2.36c.34-.476.542-1.057.542-1.686 0-1.599-1.3-2.9-2.9-2.9-1.6 0-2.9 1.301-2.9 2.9 0 .629.201 1.21.542 1.686a3.437 3.437 0 0 0-2.053 2.36l-.7 2.812H3.766V3.621zM12.5 8.787a1.438 1.438 0 0 1-1.437-1.437c0-.792.645-1.436 1.437-1.436s1.437.644 1.437 1.437c0 .792-.645 1.436-1.437 1.436zm-1.07 1.464h2.14c.911 0 1.7.617 1.92 1.5l.613 2.457H8.897l.612-2.457c.22-.883 1.01-1.5 1.92-1.5zm12.079 8.214a.234.234 0 0 1-.218.134H1.709a.234.234 0 0 1-.218-.134.234.234 0 0 1 .022-.256l1.89-2.537h18.194l1.89 2.537a.234.234 0 0 1 .022.256z" fill="currentColor"/></svg><svg fill="none" viewBox="0 0 23 23" id="ic_course_info3" xmlns="http://www.w3.org/2000/svg"><path d="M20.536 2.464H18.07V.821a.821.821 0 1 0-1.643 0v1.643H6.572V.821a.821.821 0 1 0-1.642 0v1.643H2.464A2.464 2.464 0 0 0 0 4.93v15.607A2.464 2.464 0 0 0 2.464 23h18.072A2.464 2.464 0 0 0 23 20.536V4.929a2.464 2.464 0 0 0-2.464-2.465zm.821 18.072a.821.821 0 0 1-.821.821H2.464a.821.821 0 0 1-.821-.821V9.857h19.714v10.679zm0-12.322H1.643V4.93c0-.454.368-.822.821-.822H4.93V5.75a.821.821 0 1 0 1.642 0V4.107h9.858V5.75a.821.821 0 0 0 1.643 0V4.107h2.464c.453 0 .821.368.821.822v3.285z" fill="currentColor"/><path d="M6.572 11.5H4.929a.821.821 0 0 0 0 1.643h1.643a.821.821 0 0 0 0-1.643zM12.322 11.5h-1.643a.821.821 0 1 0 0 1.643h1.643a.822.822 0 0 0 0-1.643zM18.072 11.5h-1.643a.821.821 0 1 0 0 1.643h1.643a.822.822 0 0 0 0-1.643zM6.572 14.786H4.929a.821.821 0 0 0 0 1.643h1.643a.821.821 0 1 0 0-1.643zM12.322 14.786h-1.643a.821.821 0 0 0 0 1.643h1.643a.821.821 0 1 0 0-1.643zM18.072 14.786h-1.643a.822.822 0 0 0 0 1.643h1.643a.821.821 0 1 0 0-1.643zM6.572 18.071H4.929a.821.821 0 0 0 0 1.643h1.643a.821.821 0 1 0 0-1.643zM12.322 18.071h-1.643a.821.821 0 1 0 0 1.643h1.643a.822.822 0 0 0 0-1.643zM18.072 18.071h-1.643a.821.821 0 1 0 0 1.643h1.643a.822.822 0 0 0 0-1.643z" fill="currentColor"/></svg><svg fill="none" viewBox="0 0 14 14" id="ic_video_play" xmlns="http://www.w3.org/2000/svg"><path d="M1.405 14a.718.718 0 0 1-.718-.718V.718C.688.32 1.01 0 1.405 0l11.667 6.462s.539.538 0 1.076C12.534 8.077 1.405 14 1.405 14z" fill="currentColor"/></svg></svg>